<?xml version="1.0" encoding="UTF-8" standalone="no"?>
<!DOCTYPE svg PUBLIC "-//W3C//DTD SVG 1.1//EN" "http://www.w3.org/Graphics/SVG/1.1/DTD/svg11.dtd">
<svg width="100%" height="100%" viewBox="0 0 39 36" version="1.1" xmlns="http://www.w3.org/2000/svg" xmlns:xlink="http://www.w3.org/1999/xlink" xml:space="preserve" xmlns:serif="http://www.serif.com/" style="fill-rule:evenodd;clip-rule:evenodd;stroke-linejoin:round;stroke-miterlimit:2;">
    <g transform="matrix(1,0,0,1,-7.58349,-7.9997)">
        <g id="icon">
            <g transform="matrix(1,0,0,1,13.8174,29.5717)">
                <path d="M0,-7.144C0,-8.172 0.449,-8.83 0.962,-9.235C1.475,-9.64 12.16,-17.942 12.459,-18.178C12.758,-18.415 13.014,-18.517 13.266,-18.517C13.51,-18.517 13.773,-18.415 14.073,-18.178C14.372,-17.942 25.046,-9.64 25.56,-9.235C26.072,-8.83 26.521,-8.172 26.521,-7.144L26.521,10.575C26.521,11.422 26.086,12.01 25.204,12.01L1.318,12.01C0.435,12.01 0,11.422 0,10.575L0,-7.144ZM32.374,-6.791C32.208,-6.922 28.117,-10.183 28.117,-10.183L28.117,-16.171C28.117,-16.614 27.942,-16.74 27.628,-16.74L24.947,-16.74C24.584,-16.74 24.364,-16.669 24.364,-16.171L24.364,-13.126L24.363,-13.126C19.573,-16.915 14.378,-21.024 14.181,-21.18C13.788,-21.491 13.545,-21.572 13.266,-21.572C12.989,-21.572 12.744,-21.491 12.351,-21.18C11.958,-20.869 -5.319,-7.205 -5.842,-6.791C-6.479,-6.288 -6.3,-5.561 -5.59,-5.561L-2.217,-5.561L-2.217,12.77C-2.217,13.6 -1.967,14.064 -1.441,14.278C-1.216,14.37 -0.955,14.428 -0.618,14.428L27.15,14.428C27.487,14.428 27.748,14.37 27.973,14.278C28.499,14.064 28.749,13.6 28.749,12.77L28.749,-5.561L32.122,-5.561C32.832,-5.561 33.011,-6.288 32.374,-6.791" style="fill-rule:nonzero;"/>
            </g>
            <g transform="matrix(1,0,0,1,20.0576,28.7578)">
                <path d="M0,-4.001C0,-4.435 0,-4.778 0.47,-5.156C0.78,-5.405 6.345,-9.803 6.512,-9.934C6.678,-10.065 6.842,-10.135 7.026,-10.135C7.2,-10.135 7.373,-10.065 7.54,-9.934C7.707,-9.803 13.271,-5.405 13.581,-5.156C14.052,-4.778 14.052,-4.435 14.052,-4.001L14.052,5.7C14.052,6.316 13.709,6.556 13.241,6.556L0.811,6.556C0.342,6.556 0,6.316 0,5.7L0,-4.001ZM-1.289,8.95L15.34,8.95C15.943,8.95 16.353,8.612 16.353,7.887L16.353,-4.837C16.353,-5.541 16.187,-5.946 15.688,-6.343C15.406,-6.566 7.841,-12.549 7.639,-12.708C7.437,-12.868 7.22,-12.951 7.026,-12.951C6.83,-12.951 6.615,-12.868 6.412,-12.708C6.21,-12.549 -1.355,-6.566 -1.637,-6.343C-2.136,-5.946 -2.301,-5.541 -2.301,-4.837L-2.301,7.887C-2.301,8.612 -1.892,8.95 -1.289,8.95" style="fill-rule:nonzero;"/>
            </g>
            <g transform="matrix(1,0,0,1,25.4946,27.9804)">
                <path d="M0,-0.915C0,-1.035 0.05,-1.159 0.156,-1.245C0.212,-1.291 1.404,-2.227 1.447,-2.26C1.489,-2.294 1.553,-2.312 1.591,-2.312C1.629,-2.312 1.693,-2.294 1.736,-2.26C1.778,-2.227 2.971,-1.291 3.026,-1.245C3.132,-1.159 3.182,-1.035 3.182,-0.915L3.182,1.657C3.182,1.839 3.091,1.88 2.963,1.88L0.219,1.88C0.091,1.88 0,1.839 0,1.657L0,-0.915ZM-1.782,4.217L4.962,4.217C5.27,4.217 5.489,4.118 5.489,3.68L5.489,-1.765C5.489,-2.055 5.368,-2.353 5.114,-2.56C4.979,-2.67 2.04,-4.923 1.937,-5.005C1.833,-5.086 1.681,-5.132 1.589,-5.132C1.497,-5.132 1.344,-5.086 1.241,-5.005C1.138,-4.923 -1.798,-2.67 -1.934,-2.56C-2.188,-2.353 -2.308,-2.055 -2.308,-1.765L-2.308,3.68C-2.308,4.118 -2.089,4.217 -1.782,4.217" style="fill-rule:nonzero;"/>
            </g>
        </g>
    </g>
</svg>
